<?xml version="1.0" encoding="utf-8"?><svg version="1.1" xmlns="http://www.w3.org/2000/svg" xmlns:xlink="http://www.w3.org/1999/xlink" x="0px" y="0px" viewBox="0 0 229.8 229.8" xml:space="preserve"><path id="bug" d="M212.9,0H17C7.6,0,0,7.6,0,17v195.9c0,9.4,7.6,17,17,17h195.9c9.4,0,17-7.6,17-17V17C229.8,7.6,222.2,0,212.9,0 z M68.5,195.8H33.9V86h34.6V195.8z M51.2,70.8c-11,0-19.9-8.4-19.9-19.8s8.9-19.8,19.9-19.8S71.1,39.5,71.1,51S62.2,70.8,51.2,70.8z M195.9,195.9h-34.6v-60c0-17.7-7.5-23.1-17.2-23.1c-10.3,0-20.3,7.7-20.3,23.6v59.5H89.3V86.1h33.2v15.2h0.4 c3.3-6.8,15-18.3,32.8-18.3c19.3,0,40.1,11.4,40.1,45V195.9z" fill="currentColor"/></svg>
